/* XPM */
static char * close_xpm[] = {
"17 17 4 1",
" 	c None",
".	c #232729",
"+	c #838586",
"@	c #D5146B",
".................",
".................",
".................",
".................",
".................",
"...........+.....",
"..........+.+....",
".........+...+...",
"+++.....+.....+++",
"...+...+.........",
"....+.+..........",
".....+...........",
".................",
".................",
".................",
".................",
"@@@@@@@@@@@@@@@@@"};
