/* XPM */
static char * rhalf_unfocus_xpm[] = {
"17 17 4 1",
" 	c None",
".	c #232729",
"+	c #838586",
"@	c #F6CE09",
".................",
".................",
".................",
".................",
".................",
"..........++.....",
"........++.+.....",
"......++...+.....",
"++++++.....++++++",
".................",
".................",
".................",
".................",
".................",
".................",
".................",
"@@@@@@@@@@@@@@@@@"};
