/* XPM */
static char * shade_pressed_xpm[] = {
"17 17 9 1",
" 	c None",
".	c #232729",
"+	c #EDEEEE",
"@	c #FFFFFF",
"#	c #D3D3D4",
"$	c #838586",
"%	c #9EA0A1",
"&	c #B8B9BA",
"*	c #D5146B",
".................",
".................",
".................",
".................",
".................",
"....+@@@@@@@+....",
"...#.........#...",
"...#.........#...",
"$%&...........&%$",
".................",
".................",
".................",
".................",
".................",
".................",
".................",
"*****************"};
