/* XPM */
static char * stick_unfocus_xpm[] = {
"17 17 4 1",
" 	c None",
".	c #232729",
"+	c #646768",
"@	c #F6CE09",
".................",
".................",
".................",
".................",
".................",
".....+++++++.....",
".....+.....+.....",
".....+.....+.....",
".....+.....+.....",
".....+.....+.....",
".....+.....+.....",
".....+++++++.....",
".................",
".................",
".................",
".................",
"@@@@@@@@@@@@@@@@@"};
