/* XPM */
static char * stuck_pressed_xpm[] = {
"17 17 5 1",
" 	c None",
".	c #232729",
"+	c #D3D3D4",
"@	c #646768",
"#	c #D5146B",
".................",
".................",
".................",
".................",
"....+++++++++....",
"....+.......+....",
"....+.@@@@@.+....",
"....+.@@@@@.+....",
"....+.@@@@@.+....",
"....+.@@@@@.+....",
"....+.@@@@@.+....",
"....+.......+....",
"....+++++++++....",
".................",
".................",
".................",
"#################"};
