/* XPM */
static char * tuck_xpm[] = {
"14 14 3 1",
" 	c None",
".	c #33393B",
"+	c #646768",
"..............",
"..............",
"..............",
"..............",
"....++++++....",
"....+....+....",
"....+....+....",
"....+....+....",
"....+....+....",
"....++++++....",
"..............",
"..............",
"..............",
".............."};
