/* XPM */
static char * window_inactive_xpm[] = {
"1 17 3 1",
" 	c None",
".	c #232729",
"+	c #F6CE09",
".",
".",
".",
".",
".",
".",
".",
".",
".",
".",
".",
".",
".",
".",
".",
".",
"+"};
